<svg xmlns="http://www.w3.org/2000/svg" viewBox="0 0 1600 1000" role="img" aria-labelledby="title desc">
  <title id="title">Cross-border ecommerce category cover</title>
  <desc id="desc">Dark editorial cover with storefront modules, product cards, shipping routes, and conversion marks.</desc>
  <defs>
    <linearGradient id="bg" x1="0" y1="0" x2="1" y2="1">
      <stop offset="0" stop-color="#070304"/>
      <stop offset="0.55" stop-color="#10110b"/>
      <stop offset="1" stop-color="#101f1b"/>
    </linearGradient>
    <pattern id="grid" width="100" height="100" patternUnits="userSpaceOnUse">
      <path d="M100 0H0V100" fill="none" stroke="#ffffff" stroke-opacity="0.05"/>
    </pattern>
  </defs>
  <rect width="1600" height="1000" fill="url(#bg)"/>
  <rect width="1600" height="1000" fill="url(#grid)"/>
  <g fill="none" stroke="#35d0a2" stroke-width="2" stroke-opacity="0.44">
    <path d="M230 690C498 474 668 778 930 504S1194 236 1390 360"/>
    <path d="M312 292H570M312 348H500M312 404H534"/>
    <path d="M1024 338H1286M1024 394H1190M1024 450H1250"/>
  </g>
  <g fill="#070304" stroke="#ff4401" stroke-width="2">
    <rect x="196" y="214" width="430" height="520" rx="18" fill-opacity="0.78"/>
    <rect x="948" y="254" width="430" height="520" rx="18" fill-opacity="0.78"/>
  </g>
  <g stroke="#35d0a2" stroke-width="2" fill="none">
    <rect x="254" y="476" width="136" height="170" rx="10"/>
    <rect x="422" y="476" width="136" height="170" rx="10"/>
    <rect x="1006" y="520" width="144" height="104" rx="10"/>
    <rect x="1182" y="520" width="144" height="104" rx="10"/>
  </g>
  <g fill="#ff4401">
    <circle cx="230" cy="690" r="8"/>
    <circle cx="930" cy="504" r="10"/>
    <circle cx="1390" cy="360" r="8"/>
    <path d="M758 491l48 28-48 28z"/>
  </g>
  <g fill="#f5ede8" font-family="Inter, Arial, sans-serif">
    <text x="254" y="320" font-size="28" font-weight="800" fill-opacity="0.68">SHOPIFY / AMAZON / SOCIAL</text>
    <text x="254" y="394" font-size="68" font-weight="900">E-COM</text>
    <text x="1006" y="354" font-size="28" font-weight="800" fill-opacity="0.68">CONVERSION SYSTEM</text>
    <text x="1006" y="448" font-size="106" font-weight="900" fill="#35d0a2">02</text>
  </g>
</svg>
