<svg xmlns="http://www.w3.org/2000/svg" viewBox="0 0 1600 1000" role="img" aria-labelledby="title desc">
  <title id="title">AIGC category cover</title>
  <desc id="desc">Dark editorial cover with neural nodes, prompt panels, and generated image frames.</desc>
  <defs>
    <linearGradient id="bg" x1="0" y1="0" x2="1" y2="1">
      <stop offset="0" stop-color="#070304"/>
      <stop offset="0.58" stop-color="#120908"/>
      <stop offset="1" stop-color="#241009"/>
    </linearGradient>
    <radialGradient id="glow" cx="0.68" cy="0.34" r="0.48">
      <stop offset="0" stop-color="#ff4401" stop-opacity="0.45"/>
      <stop offset="0.45" stop-color="#ff4401" stop-opacity="0.12"/>
      <stop offset="1" stop-color="#ff4401" stop-opacity="0"/>
    </radialGradient>
    <pattern id="grid" width="80" height="80" patternUnits="userSpaceOnUse">
      <path d="M80 0H0V80" fill="none" stroke="#ffffff" stroke-opacity="0.055"/>
    </pattern>
  </defs>
  <rect width="1600" height="1000" fill="url(#bg)"/>
  <rect width="1600" height="1000" fill="url(#grid)"/>
  <rect width="1600" height="1000" fill="url(#glow)"/>
  <g fill="none" stroke="#ff4401" stroke-linecap="round">
    <path d="M284 690C440 536 596 682 742 502S1016 272 1322 336" stroke-opacity="0.62" stroke-width="3"/>
    <path d="M306 470C510 434 610 282 792 392S1058 646 1294 532" stroke-opacity="0.28" stroke-width="2"/>
    <path d="M420 742L590 604L768 646L936 438L1110 522L1280 354" stroke-opacity="0.42" stroke-width="2"/>
  </g>
  <g fill="#070304" stroke="#ff4401" stroke-width="2">
    <rect x="214" y="196" width="360" height="248" rx="18" fill-opacity="0.74"/>
    <rect x="980" y="438" width="372" height="272" rx="18" fill-opacity="0.74"/>
  </g>
  <g fill="#ff4401">
    <circle cx="284" cy="690" r="10"/>
    <circle cx="590" cy="604" r="8"/>
    <circle cx="742" cy="502" r="11"/>
    <circle cx="936" cy="438" r="8"/>
    <circle cx="1110" cy="522" r="10"/>
    <circle cx="1322" cy="336" r="12"/>
  </g>
  <g fill="#f5ede8" font-family="Inter, Arial, sans-serif">
    <text x="260" y="278" font-size="30" font-weight="800">PROMPT / IMAGE / FLOW</text>
    <text x="260" y="334" font-size="76" font-weight="900">AIGC</text>
    <text x="260" y="382" font-size="24" font-weight="700" fill-opacity="0.62">GENERATIVE VISUAL SYSTEM</text>
    <text x="1028" y="536" font-size="28" font-weight="800" fill-opacity="0.68">MODEL OUTPUT</text>
    <text x="1028" y="602" font-size="116" font-weight="900" fill="#ff4401">01</text>
  </g>
  <g fill="#f5ede8" fill-opacity="0.32">
    <rect x="260" y="410" width="210" height="10" rx="5"/>
    <rect x="1028" y="640" width="230" height="10" rx="5"/>
    <rect x="1028" y="668" width="150" height="10" rx="5"/>
  </g>
</svg>
