<svg xmlns="http://www.w3.org/2000/svg" viewBox="0 0 1600 1000" role="img" aria-labelledby="title desc">
  <title id="title">Visual design category cover</title>
  <desc id="desc">Dark editorial cover with poster sheets, photography crops, layout marks, and visual identity panels.</desc>
  <defs>
    <linearGradient id="bg" x1="0" y1="0" x2="1" y2="1">
      <stop offset="0" stop-color="#070304"/>
      <stop offset="0.48" stop-color="#170b10"/>
      <stop offset="1" stop-color="#20140b"/>
    </linearGradient>
    <pattern id="grid" width="88" height="88" patternUnits="userSpaceOnUse">
      <path d="M88 0H0V88" fill="none" stroke="#ffffff" stroke-opacity="0.052"/>
    </pattern>
  </defs>
  <rect width="1600" height="1000" fill="url(#bg)"/>
  <rect width="1600" height="1000" fill="url(#grid)"/>
  <g transform="rotate(-6 800 500)">
    <rect x="252" y="184" width="300" height="520" rx="14" fill="#070304" fill-opacity="0.86" stroke="#ff4401" stroke-width="2"/>
    <rect x="604" y="138" width="392" height="590" rx="14" fill="#070304" fill-opacity="0.86" stroke="#f5ede8" stroke-opacity="0.36" stroke-width="2"/>
    <rect x="1048" y="252" width="292" height="420" rx="14" fill="#070304" fill-opacity="0.86" stroke="#ffbf3f" stroke-width="2"/>
  </g>
  <g fill="none" stroke="#ff4401" stroke-width="2">
    <circle cx="406" cy="426" r="86"/>
    <path d="M336 600H476M336 636H438"/>
    <path d="M698 278H914M698 336H836M698 394H886"/>
  </g>
  <g fill="#ffbf3f" fill-opacity="0.82">
    <rect x="682" y="474" width="260" height="168" rx="16"/>
    <circle cx="1200" cy="438" r="82"/>
  </g>
  <g fill="#f5ede8" font-family="Inter, Arial, sans-serif">
    <text x="250" y="830" font-size="30" font-weight="800" fill-opacity="0.68">POSTER / PHOTO / MOTION / BRAND</text>
    <text x="250" y="900" font-size="86" font-weight="900">VISUAL</text>
    <text x="1070" y="806" font-size="106" font-weight="900" fill="#ffbf3f">05</text>
  </g>
</svg>
